<svg width="32" height="32" viewBox="0 0 32 32" fill="none" xmlns="http://www.w3.org/2000/svg">
    <path fill-rule="evenodd" clip-rule="evenodd" d="M18.0808 1.67402C18.7469 1.88397 19.1998 2.50165 19.1998 3.2V11.2L25.5998 11.2C26.1964 11.2 26.7435 11.5319 27.019 12.0611C27.2945 12.5903 27.2527 13.2288 26.9106 13.7175L15.7106 29.7175C15.3101 30.2897 14.5848 30.5359 13.9188 30.326C13.2527 30.116 12.7998 29.4984 12.7998 28.8V20.8H6.39981C5.80321 20.8 5.25616 20.4681 4.98064 19.9389C4.70513 19.4097 4.74691 18.7712 5.08904 18.2825L16.289 2.28246C16.6895 1.71035 17.4148 1.46407 18.0808 1.67402Z" fill="#0F172A"/>
</svg>
